<svg width="234" height="207" viewBox="0 0 234 207" fill="none" xmlns="http://www.w3.org/2000/svg">
<path d="M159.24 42.1135C159.24 65.3722 140.382 84.2271 117.12 84.2271C93.8574 84.2271 75 65.3722 75 42.1135C75 18.8548 93.8574 0 117.12 0C140.382 0 159.24 18.8548 159.24 42.1135Z" fill="url(#paint0_radial_117_17)"/>
<path d="M5.12459 46.2968C3.6504 46.2968 2.1879 46.2967 0.737099 46.4138C0.248846 50.7093 0.00275737 55.0289 0 59.3519C0 123.692 52.3808 175.89 117 175.89C118.474 175.89 119.925 175.89 121.387 175.784H122.85C184.755 172.742 234 121.797 234 59.3875C233.996 55.0643 233.754 50.745 233.275 46.4488C171.37 49.4904 122.124 100.436 122.124 162.847C122.124 98.4822 69.7436 46.2968 5.12459 46.2968Z" fill="url(#paint1_linear_117_17)"/>
<path d="M122.967 178.096H121.224C120.546 178.096 119.855 178.119 119.157 178.142C118.442 178.166 117.721 178.19 117 178.19C89.5168 178.196 62.8718 168.728 41.5585 151.378C20.2451 134.03 10.6704 128.909 5.10328 102C6.27328 170.692 53.118 206.955 117 206.955C180.835 206.955 227.647 170.656 228.922 102C223.62 127.931 214.901 132.404 194.793 149.618C174.683 166.832 149.41 176.852 122.967 178.096Z" fill="url(#paint2_linear_117_17)"/>
<defs>
<radialGradient id="paint0_radial_117_17" cx="0" cy="0" r="1" gradientUnits="userSpaceOnUse" gradientTransform="translate(117.12 42.1135) rotate(90) scale(42.1135 42.12)">
<stop offset="1" stop-color="white"/>
</radialGradient>
<linearGradient id="paint1_linear_117_17" x1="117" y1="61.9999" x2="117" y2="176" gradientUnits="userSpaceOnUse">
<stop offset="1" stop-color="#F4F9FF"/>
</linearGradient>
<linearGradient id="paint2_linear_117_17" x1="117" y1="87.5" x2="111" y2="212" gradientUnits="userSpaceOnUse">
<stop stop-color="white"/>
</linearGradient>
</defs>
</svg>
